<svg version="1.1" id="Ebene_1" xmlns="http://www.w3.org/2000/svg" x="0" y="0" viewBox="0 0 512 512" style="enable-background:new 0 0 512 512" xml:space="preserve">
  <style>
    .st5{fill:#6bc4c8}.st6{fill:#e83363}
  </style>
  <circle class="circle" cx="256" cy="256" r="198" />
  <path class="st5" d="M338.5 172.5c-1.6-.6-3.3-1-5-1H185c-7.5 0-13.6 6.1-13.6 13.6v148.4c0 1.7.4 3.4 1 5-5-2-8.5-6.9-8.5-12.6V177.6c0-7.5 6-13.6 13.6-13.6h148.3c5.7 0 10.6 3.5 12.6 8.5z"/>
  <path d="M338.5 172.5c-1.6-.6-3.3-1-5-1H185c-7.5 0-13.6 6.1-13.6 13.6v148.4c0 1.7.4 3.4 1 5 1.6.6 3.3 1 5 1H326c7.5 0 13.6-6 13.6-13.6V177.6c0-1.8-.4-3.5-1-5zM316.9 317H201.7v-7.5H194V194h115.2v7.6h7.6v115.2z"/>
  <path class="st5" d="M316.9 201.7v115.2H201.7v-7.5h107.7V201.7z"/>
  <path class="st6" d="M309.4 194.1v7.6H201.7v107.7h-7.6V194.1z"/>
  <path class="st6" d="M347 185v148.5c0 7.4-6 13.5-13.6 13.5H185.1c-5.7 0-10.6-3.5-12.6-8.5 1.6.6 3.3 1 5 1H326c7.5 0 13.6-6 13.6-13.6V177.6c0-1.8-.4-3.5-1-5 5 2 8.5 6.8 8.5 12.5z"/>
</svg>