
<svg version="1.1" id="Ebene_1" xmlns="http://www.w3.org/2000/svg" x="0" y="0" viewBox="0 0 512 512" style="enable-background:new 0 0 512 512" xml:space="preserve">
  <style>
    .st1{fill:#e83363}.st2{fill:#66c2c8}.st4,.st6{display:inline;fill:#6bc4c8}.st6{fill:#e83363}
  </style>
  <circle class="circle" cx="256" cy="256" r="198" />
  <path class="st1" d="M358.8 249.8c-.7-.7-1.5-1.4-2.4-2l-146.1-84.3a12.5 12.5 0 0 0-18.7 10.8V343c0 1 .1 2 .4 3-2-2-3.2-4.7-3.2-7.8V169.5a12.5 12.5 0 0 1 18.7-10.8l146.1 84.4a11 11 0 0 1 5.2 6.7z"/>
  <path class="st2" d="m356.4 267.4-148 85.4c-1.7 1-3.7 1.5-5.5 1.5-5 0-9.6-3.3-11-8.3 2.2 2.2 5.1 3.4 8.2 3.4 1.9 0 3.8-.4 5.6-1.5l147.9-85.4c4.8-2.7 6.5-8 5.2-12.7 5 5 4.1 13.8-2.4 17.6z"/>
  <path d="M358.8 249.8c-.7-.7-1.5-1.4-2.4-2l-146.1-84.3a12.5 12.5 0 0 0-18.7 10.8V343c0 1 .1 2 .4 3a11.2 11.2 0 0 0 13.7 2l148-85.5c4.7-2.7 6.4-8 5.1-12.7zm-139.5 64.8V308l-2.8 1.6V196l98.6 56.9-2.8 1.6 5.6 3.2-98.6 57z"/>
  <path class="st2" d="m315.1 252.8-2.8 1.6-93-53.7v107.4l-2.8 1.6V195.9z"/>
  <path class="st1" d="m317.9 257.6-98.6 57v-6.5l93-53.7z"/>
</svg>